<?xml version="1.0" standalone="no"?>
<!DOCTYPE svg PUBLIC "-//W3C//DTD SVG 20010904//EN"
 "http://www.w3.org/TR/2001/REC-SVG-20010904/DTD/svg10.dtd">
<svg version="1.0" xmlns="http://www.w3.org/2000/svg"
 width="800.000000pt" height="800.000000pt" viewBox="0 0 800.000000 800.000000"
 preserveAspectRatio="xMidYMid meet">
<metadata>
Created by potrace 1.11, written by Peter Selinger 2001-2013
</metadata>
<g transform="translate(0.000000,800.000000) scale(0.100000,-0.100000)"
fill="#000000" stroke="none">
<path d="M2464 7330 c-91 -13 -210 -62 -199 -80 3 -5 0 -7 -8 -4 -26 9 -141
-108 -179 -183 -64 -125 -63 -109 -63 -763 0 -642 0 -637 55 -756 45 -99 205
-249 242 -228 7 4 10 4 6 -1 -4 -4 23 -21 60 -38 37 -16 84 -38 104 -49 21
-10 39 -18 40 -17 2 1 21 -7 43 -19 22 -11 49 -22 60 -24 11 -1 22 -6 25 -9 7
-9 282 -131 300 -134 8 -1 31 -11 50 -23 32 -20 52 -26 73 -23 4 0 7 -3 7 -8
0 -10 27 -21 44 -20 5 0 12 -3 15 -8 6 -9 184 -89 211 -95 8 -2 21 -9 29 -16
8 -8 22 -11 33 -9 10 3 16 2 13 -3 -4 -6 278 -137 309 -143 6 -1 14 -6 17 -10
4 -5 18 -10 32 -10 14 -1 23 -5 21 -8 -2 -3 8 -11 23 -18 14 -6 24 -13 22 -15
-2 -2 -357 -169 -789 -371 -432 -202 -798 -377 -815 -388 -90 -60 -161 -150
-203 -254 l-27 -68 -3 -1202 c-3 -1319 -5 -1269 57 -1391 99 -195 330 -310
547 -273 48 9 233 81 623 242 305 127 571 239 592 250 63 31 163 133 199 200
64 120 63 114 67 676 l4 511 297 139 c163 77 589 277 945 444 495 232 662 314
705 349 64 52 129 142 163 227 l24 58 3 840 c2 598 0 857 -8 900 -18 92 -62
174 -133 247 -58 60 -191 148 -203 135 -3 -3 -22 6 -42 19 -20 14 -44 23 -54
21 -10 -3 -16 -2 -13 2 4 8 -101 57 -108 50 -2 -2 -11 4 -21 14 -15 15 -29 19
-52 16 -4 0 -10 4 -13 9 -3 5 -80 42 -171 82 -91 40 -190 83 -220 97 -211 96
-302 133 -312 127 -6 -4 -8 -3 -5 3 4 6 -8 16 -26 23 -17 7 -66 29 -107 48
-41 19 -79 35 -85 37 -8 2 -76 32 -170 75 -11 5 -27 11 -35 12 -8 2 -17 6 -20
10 -11 14 -123 57 -133 51 -5 -3 -7 -2 -4 3 6 10 -101 57 -128 57 -8 0 -12 3
-10 7 4 7 -121 65 -140 65 -5 0 -16 6 -23 13 -8 7 -17 10 -22 7 -5 -3 -10 -1
-12 4 -5 13 -99 51 -111 44 -6 -3 -7 -1 -3 5 4 7 3 12 -3 12 -6 0 -41 14 -78
31 -136 63 -491 218 -505 221 -7 2 -15 6 -18 9 -11 13 -530 238 -581 252 -72
20 -143 26 -205 17z m467 -2277 c13 -16 12 -17 -3 -4 -17 13 -22 21 -14 21 2
0 10 -8 17 -17z"/>
</g>
</svg>
